<?xml version="1.0" encoding="UTF-8" standalone="no"?>
<svg
   xmlns:dc="http://purl.org/dc/elements/1.1/"
   xmlns:cc="http://creativecommons.org/ns#"
   xmlns:rdf="http://www.w3.org/1999/02/22-rdf-syntax-ns#"
   xmlns:svg="http://www.w3.org/2000/svg"
   xmlns="http://www.w3.org/2000/svg"
   xmlns:sodipodi="http://sodipodi.sourceforge.net/DTD/sodipodi-0.dtd"
   xmlns:inkscape="http://www.inkscape.org/namespaces/inkscape"
   version="1.0"
   width="184.23669"
   height="184.2363"
   viewBox="0 0 1842.367 1842.363"
   preserveAspectRatio="xMidYMid meet"
   id="svg1272"
   sodipodi:docname="LLVM-Logo-Derivative-5.svg"
   inkscape:version="0.92.4 (unknown)"
   inkscape:export-filename="/home/kkleine/Dokumente/Presentations/FOSDEM-2020/src/llvm-circle-black.png"
   inkscape:export-xdpi="491.51999"
   inkscape:export-ydpi="491.51999">
  <metadata
     id="metadata1278">
    <rdf:RDF>
      <cc:Work
         rdf:about="">
        <dc:format>image/svg+xml</dc:format>
        <dc:type
           rdf:resource="http://purl.org/dc/dcmitype/StillImage" />
        <dc:title />
      </cc:Work>
    </rdf:RDF>
  </metadata>
  <defs
     id="defs1276" />
  <sodipodi:namedview
     pagecolor="#ffffff"
     bordercolor="#666666"
     borderopacity="1"
     objecttolerance="10"
     gridtolerance="10"
     guidetolerance="10"
     inkscape:pageopacity="0"
     inkscape:pageshadow="2"
     inkscape:window-width="1842"
     inkscape:window-height="1136"
     id="namedview1274"
     showgrid="false"
     inkscape:pagecheckerboard="true"
     fit-margin-top="0"
     fit-margin-left="0"
     fit-margin-right="0"
     fit-margin-bottom="0"
     showborder="true"
     inkscape:zoom="1.6465935"
     inkscape:cx="-49.531081"
     inkscape:cy="-35.7106"
     inkscape:window-x="78"
     inkscape:window-y="27"
     inkscape:window-maximized="1"
     inkscape:current-layer="svg1272" />
  <path
     style="opacity:1;fill:#000000;fill-opacity:1;stroke:#a07cbc;stroke-width:0;stroke-linecap:round;stroke-linejoin:round;stroke-miterlimit:4;stroke-dasharray:none;stroke-dashoffset:0;stroke-opacity:1;paint-order:stroke markers fill"
     d="M 911.46849,0.0524592 A 921.18236,921.18236 0 0 0 0.02318302,927.65012 921.18236,921.18236 0 0 0 924.43724,1842.3572 921.18236,921.18236 0 0 0 1279.4568,1768.8025 c 0.595,-11.8153 -4.1897,-23.6045 -19.668,-29.1211 -16.8151,-5.993 18.5951,-13.243 34.3946,-21.4062 37,-8 60.5312,-47.4844 34.5312,-61.4844 -15,-8 -14.0039,-11 10.9961,-20 35,-14 50.9883,-50.9883 27.9883,-67.9883 -14,-10 -13,-13.0156 10,-21.0156 28,-11 44.0117,-46.9844 27.0117,-58.9844 -7,-4 -4.0078,-11.0039 6.9922,-19.0039 10,-7 19,-27.9961 20,-45.9961 2,-18 6.9961,-42.0078 10.9961,-53.0078 5,-11 9.0078,-85 8.0078,-165 -1,-163 -21.0078,-269.00396 -73.0078,-384.00396 -79,-175 -214.9883,-292.99609 -377.98832,-325.99609 -135,-28 -296.01172,1.00781 -367.01172,68.00781 -41,38 -75.99609,117.98828 -75.99609,172.98828 0,46 0.012,46.00391 67.01171,89.00391 167,109 306.98829,307.99995 272.98829,390.00005 -16,39 10.99609,101.0039 65.99609,149.0039 24,21 44.00394,46.0039 44.00394,54.0039 0,16 -65.99222,73.9961 -106.99222,95.9961 -29,15 -87.01172,15.0039 -77.01172,-0.996 5,-8 0.008,-9.0039 -16.99219,-4.0039 -13,4 -35.0039,9.9922 -49.0039,11.9922 l -25,5 28.00781,-20.9961 26.99219,-21.9922 -26.99219,-32.0117 c -16,-18 -43,-54.0039 -60,-79.0039 -36,-51 -56.00391,-57.9961 -74.00391,-25.9961 -16,31 -5.00781,96.0117 31.99219,187.0117 l 30,76.9922 -22.98828,18.0078 c -18,15 -35,18 -85,15 -89,-6 -100.00781,-19.0117 -83.00781,-97.0117 16,-75 6.01171,-145.9883 -22.98829,-172.9883 -11.99999,-11 -50.0039,-37.0078 -84.0039,-58.0078 -34,-21 -67.00781,-48 -73.00781,-60 -7,-12 -11,-52.9961 -10,-90.9961 4,-129.0001 3.99609,-144.0118 -9.00391,-242.01186 -22,-175 18.00781,-326.00001 118.00781,-440 16,-18 36.99219,-58.99219 46.99219,-91.99219 l 18.00781,-60 4.00391,38.00781 c 2,20 6.99609,36.99219 10.99609,36.99219 5,0 18,-27 30,-60 25,-67 40.9961,-84.00781 40.9961,-43.00781 0,59.99999 17.0039,59.99999 44.0039,0 26,-59 45.9961,-73.98438 45.9961,-33.98438 0,12 5,28.99219 10,36.99219 8,12 18.0039,6 54.0039,-35 l 45,-50 0.9961,33.00781 c 0,39 9,39.99219 40,6.99219 28,-30 50,-32 50,-5 0,23 11.99609,24.99218 40.99609,6.99219 17,-9.00001 23.01563,-8.98438 26.01562,1.01562 3,6 15.98438,11.99219 28.98438,11.99219 46,0 179.00394,31.99219 239.00394,56.99219 140,58.99999 280,176.01562 365,306.01562 l 118.0078,201.11328 c 26.3143,43.34803 120.197,172.00566 151.9531,246.66016 a 921.18236,921.18236 0 0 0 15.7032,-165.39063 l -0.08,-12.96875 A 921.18236,921.18236 0 0 0 911.46849,0.0524592 Z"
     id="path871"
     inkscape:connector-curvature="0" />
  <g
     id="layer101"
     style="fill:#262d3a;stroke:none"
     transform="translate(8.122693,178.29928)" />
  <g
     id="layer106"
     style="fill:#dedede;stroke:none"
     transform="translate(79.284851,56.899601)"
     inkscape:export-xdpi="491.51999"
     inkscape:export-ydpi="491.51999">
    <g
       id="g1829"
       style="fill:#fffff1;fill-opacity:1"
       transform="translate(54.658301,-36.438867)" />
  </g>
  <path
     style="opacity:1;fill:#fffff1;fill-opacity:1;stroke:#a07cbc;stroke-width:0;stroke-linecap:round;stroke-linejoin:round;stroke-miterlimit:4;stroke-dasharray:none;stroke-dashoffset:0;stroke-opacity:1;paint-order:stroke markers fill"
     id="path863"
     sodipodi:type="arc"
     sodipodi:cx="-130.69087"
     sodipodi:cy="446.01105"
     sodipodi:rx="173.51697"
     sodipodi:ry="146.25"
     sodipodi:start="0"
     sodipodi:end="0.0078123381"
     sodipodi:open="true"
     d="m 42.826096,446.01105 a 173.51697,146.25 0 0 1 -0.0053,1.14254" />
  <path
     id="path885"
     d="M 1781.6413,3089.2893 A 921.18237,921.18237 0 0 1 863.69896,4010.4659 921.18237,921.18237 0 0 1 -60.700666,3095.7693 921.18237,921.18237 0 0 1 850.73893,2168.1582 921.18237,921.18237 0 0 1 1781.5502,3076.3295"
     style="opacity:1;fill:#db3279;fill-opacity:1;stroke:#a07cbc;stroke-width:0;stroke-linecap:round;stroke-linejoin:round;stroke-miterlimit:4;stroke-dasharray:none;stroke-dashoffset:0;stroke-opacity:1;paint-order:stroke markers fill"
     inkscape:connector-curvature="0" />
  <g
     inkscape:export-ydpi="491.51999"
     inkscape:export-xdpi="491.51999"
     transform="translate(18.553406,2225.0122)"
     style="fill:#dedede;stroke:none"
     id="g891">
    <g
       transform="translate(54.658301,-36.438867)"
       style="fill:#fffff1;fill-opacity:1"
       id="g889">
      <path
         sodipodi:nodetypes="cscccccccccccccscccscsccccccccccccccscccccccscscscccccsccscccsc"
         inkscape:connector-curvature="0"
         id="path887"
         d="m 1124.357,1780.8276 c 13.8681,2.7115 39.2648,-48.1459 1.4895,-61.6093 -16.8151,-5.993 18.5986,-13.2389 34.3981,-21.4021 37,-8 60.5183,-47.4817 34.5183,-61.4817 -15,-8 -14,-11 11,-20 35,-14 51,-51 28,-68 -14,-10 -13,-13 10,-21 28,-11 44,-47 27,-59 -7,-4 -4,-11 7,-19 10,-7 19,-28 20,-46 2,-18 7,-42 11,-53 5,-11 9,-85 8,-165 -1,-162.9999 -21,-268.99994 -73,-383.99994 -79,-175 -215,-293 -377.99999,-326 -135,-28 -296,1 -367,68 -41,38 -76,118 -76,173 0,46 0,46 67,89 167,109 307,307.99994 273,389.99994 -16,39 11,101 66,149 24,21 44,46 44,54 0,16 -66,74 -107,96 -29,15 -87,15 -77,-1 5,-8 0,-9 -17,-4 -13,4 -35,10 -49,12 l -25,5 28,-21 27,-22 -27,-32 c -16,-18 -43,-54 -60,-79 -36,-51 -56,-58 -74,-26 -16,31 -5,96 32,187 l 30,77 -23,18 c -18,15 -35,18 -85,15 -89,-6 -100,-19 -83,-97 16,-75 6,-146 -23,-173 -12,-11 -49.99997,-37 -83.99997,-58 -34,-21 -67,-48 -73,-60 -7,-12 -11,-53 -10,-91 4,-128.9999 4,-143.9999 -9,-241.99994 -22,-175 18,-326 118,-440 16,-18 36.99997,-59 46.99997,-92 l 18,-60 4,38 c 2,20 7,37 11,37 5,0 18,-27 30,-60 25,-67 41,-84 41,-43 0,60 17,60 44,0 26,-59 46,-74 46,-34 0,12 5,29 10,37 8,12 18,6 54,-35 l 45,-50 1,33 c 0,39 9,40 40,7 28,-30 50,-32 50,-5 0,23 12,25 41,7 17,-9 23,-9 26,1 3,6 16,12 29,12 46,0 179.00002,32 238.99999,57 140,59 280,176 365,306 l 118.0041,201.1252 c 32.6642,53.8084 169.613,239.19174 162.3556,289.37834 -95.6607,661.5078 -563.9298,771.475 -578.7656,671.9895 z"
         style="fill:#fffff1;fill-opacity:1" />
    </g>
  </g>
  <path
     inkscape:connector-curvature="0"
     style="opacity:1;fill:#db3279;fill-opacity:1;stroke:#a07cbc;stroke-width:0;stroke-linecap:round;stroke-linejoin:round;stroke-miterlimit:4;stroke-dasharray:none;stroke-dashoffset:0;stroke-opacity:1;paint-order:stroke markers fill"
     d="m -380.39818,3077.143 a 921.18237,921.18237 0 0 1 -917.94222,921.1766 921.18237,921.18237 0 0 1 -924.3997,-914.6966 921.18237,921.18237 0 0 1 911.4396,-927.6111 921.18237,921.18237 0 0 1 930.81122,908.1713"
     id="path893" />
  <g
     id="g899"
     style="fill:#dedede;stroke:none"
     transform="translate(-2143.486,2212.8659)"
     inkscape:export-xdpi="491.51999"
     inkscape:export-ydpi="491.51999">
    <g
       id="g897"
       style="fill:#fffff1;fill-opacity:1"
       transform="translate(54.658301,-36.438867)">
      <path
         style="fill:#fffff1;fill-opacity:1"
         d="m 1124.357,1780.8276 c 13.8681,2.7115 39.2648,-48.1459 1.4895,-61.6093 -16.8151,-5.993 18.5986,-13.2389 34.3981,-21.4021 37,-8 60.5183,-47.4817 34.5183,-61.4817 -15,-8 -14,-11 11,-20 35,-14 51,-51 28,-68 -14,-10 -13,-13 10,-21 28,-11 44,-47 27,-59 -7,-4 -4,-11 7,-19 10,-7 19,-28 20,-46 2,-18 7,-42 11,-53 5,-11 9,-85 8,-165 -1,-162.9999 -21,-268.99994 -73,-383.99994 -79,-175 -215,-293 -377.99999,-326 -135,-28 -296,1 -367,68 -41,38 -76,118 -76,173 0,46 0,46 67,89 167,109 307,307.99994 273,389.99994 -16,39 11,101 66,149 24,21 44,46 44,54 0,16 -66,74 -107,96 -29,15 -87,15 -77,-1 5,-8 0,-9 -17,-4 -13,4 -35,10 -49,12 l -25,5 28,-21 27,-22 -27,-32 c -16,-18 -43,-54 -60,-79 -36,-51 -56,-58 -74,-26 -16,31 -5,96 32,187 l 30,77 -23,18 c -18,15 -35,18 -85,15 -89,-6 -100,-19 -83,-97 16,-75 6,-146 -23,-173 -12,-11 -49.99997,-37 -83.99997,-58 -34,-21 -67,-48 -73,-60 -7,-12 -11,-53 -10,-91 4,-128.9999 4,-143.9999 -9,-241.99994 -22,-175 18,-326 118,-440 16,-18 36.99997,-59 46.99997,-92 l 18,-60 4,38 c 2,20 7,37 11,37 5,0 18,-27 30,-60 25,-67 41,-84 41,-43 0,60 17,60 44,0 26,-59 46,-74 46,-34 0,12 5,29 10,37 8,12 18,6 54,-35 l 45,-50 1,33 c 0,39 9,40 40,7 28,-30 50,-32 50,-5 0,23 12,25 41,7 17,-9 23,-9 26,1 3,6 16,12 29,12 46,0 179.00002,32 238.99999,57 140,59 280,176 365,306 l 118.0041,201.1252 c 32.6642,53.8084 169.613,239.19174 162.3556,289.37834 -95.6607,661.5078 -563.9298,771.475 -578.7656,671.9895 z"
         id="path895"
         inkscape:connector-curvature="0"
         sodipodi:nodetypes="cscccccccccccccscccscsccccccccccccccscccccccscscscccccsccscccsc" />
    </g>
  </g>
</svg>
