<?xml version="1.0" encoding="UTF-8" standalone="no"?>
<svg
   xmlns:dc="http://purl.org/dc/elements/1.1/"
   xmlns:cc="http://creativecommons.org/ns#"
   xmlns:rdf="http://www.w3.org/1999/02/22-rdf-syntax-ns#"
   xmlns:svg="http://www.w3.org/2000/svg"
   xmlns="http://www.w3.org/2000/svg"
   xmlns:sodipodi="http://sodipodi.sourceforge.net/DTD/sodipodi-0.dtd"
   xmlns:inkscape="http://www.inkscape.org/namespaces/inkscape"
   version="1.0"
   width="379.39807"
   height="144.00163"
   viewBox="0 0 3793.9809 1440.0163"
   preserveAspectRatio="xMidYMid meet"
   id="svg1272"
   sodipodi:docname="llvm-circle-and-red-hat.svg"
   inkscape:version="0.92.4 (unknown)"
   inkscape:export-filename="/home/kkleine/Dokumente/Presentations/FOSDEM-2020/src/llvm-circle-black.png"
   inkscape:export-xdpi="491.51999"
   inkscape:export-ydpi="491.51999">
  <metadata
     id="metadata1278">
    <rdf:RDF>
      <cc:Work
         rdf:about="">
        <dc:format>image/svg+xml</dc:format>
        <dc:type
           rdf:resource="http://purl.org/dc/dcmitype/StillImage" />
        <dc:title></dc:title>
      </cc:Work>
    </rdf:RDF>
  </metadata>
  <defs
     id="defs1276">
    <style
       id="style38">.cls-1{fill:#fff;}</style>
  </defs>
  <sodipodi:namedview
     pagecolor="#5e5e5e"
     bordercolor="#666666"
     borderopacity="1"
     objecttolerance="10"
     gridtolerance="10"
     guidetolerance="10"
     inkscape:pageopacity="0"
     inkscape:pageshadow="2"
     inkscape:window-width="1842"
     inkscape:window-height="1136"
     id="namedview1274"
     showgrid="false"
     inkscape:pagecheckerboard="false"
     fit-margin-top="0"
     fit-margin-left="0"
     fit-margin-right="0"
     fit-margin-bottom="0"
     showborder="true"
     inkscape:zoom="1.3337407"
     inkscape:cx="132.11755"
     inkscape:cy="-27.175301"
     inkscape:window-x="78"
     inkscape:window-y="27"
     inkscape:window-maximized="1"
     inkscape:current-layer="svg1272" />
  <path
     style="opacity:1;fill:#ffffff;fill-opacity:1;stroke:#a07cbc;stroke-width:0;stroke-linecap:round;stroke-linejoin:round;stroke-miterlimit:4;stroke-dasharray:none;stroke-dashoffset:0;stroke-opacity:1;paint-order:stroke markers fill"
     d="M 712.41643,0.04019381 A 720.00932,720.00932 0 0 0 0.01776488,725.06378 720.00932,720.00932 0 0 0 722.55303,1440.0119 720.00932,720.00932 0 0 0 1000.0413,1382.5206 c 0.4652,-9.2351 -3.27467,-18.4497 -15.37277,-22.7615 -13.1429,-4.6842 14.5341,-10.3509 26.88337,-16.7313 28.9197,-6.2529 47.312,-37.1145 26.9901,-48.0571 -11.7243,-6.253 -10.9458,-8.5979 8.5946,-15.6323 27.3565,-10.9427 39.8532,-39.8532 21.876,-53.1408 -10.9425,-7.816 -10.1609,-10.1731 7.8163,-16.4259 21.8851,-8.5978 34.4001,-36.7238 21.1126,-46.1032 -5.4713,-3.1264 -3.1325,-8.6008 5.4652,-14.8537 7.8163,-5.4713 14.8507,-21.8822 15.6324,-35.9512 1.5631,-14.069 5.4682,-32.8338 8.5947,-41.4316 3.908,-8.5978 7.0406,-66.4371 6.259,-128.96643 -0.7817,-127.40312 -16.42,-210.25734 -57.0639,-300.14298 -61.7476,-136.78251 -168.03787,-229.00994 -295.44107,-254.80322 -105.518,-21.88519 -231.3671,0.78773 -286.86164,53.15589 -32.04619,29.70134 -59.39963,92.22132 -59.39963,135.21012 0,35.95425 0.009,35.95731 52.3773,69.56672 130.52957,85.19597 239.94647,240.73717 213.37157,304.82966 -12.5059,30.483 8.5947,78.94614 51.5835,116.46364 18.7587,16.4138 34.3942,35.9572 34.3942,42.2101 0,12.5058 -51.5806,57.8364 -83.6268,75.032 -22.6668,11.7242 -68.0096,11.7272 -60.1935,-0.7785 3.9081,-6.2529 0.01,-7.0375 -13.2813,-3.1295 -10.161,3.1264 -27.3595,7.8101 -38.3021,9.3733 l -19.5403,3.9081 21.8912,-16.4108 21.0976,-17.1895 -21.0976,-25.0209 c -12.5058,-14.069 -33.6094,-42.2101 -46.8968,-61.7506 -28.13813,-39.8623 -43.77347,-45.3305 -57.84253,-20.3187 -12.50583,24.23 -3.91418,75.044 25.00555,146.1709 l 23.44848,60.1782 -17.96803,14.0751 c -14.06905,11.7242 -27.3565,14.0692 -66.43721,11.7242 -69.56367,-4.6896 -78.16754,-14.8598 -64.8801,-75.8257 12.50584,-58.6211 4.69885,-114.1065 -17.96797,-135.2101 -9.37936,-8.5978 -39.08376,-28.9259 -65.65864,-45.3397 -26.57489,-16.4139 -52.37427,-37.51757 -57.06395,-46.89689 -5.47131,-9.37941 -8.59776,-41.42253 -7.81615,-71.1239 3.12646,-100.82832 3.1234,-112.56167 -7.03757,-189.15993 -17.19552,-136.7825 14.07515,-254.80626 92.23659,-343.9103 12.50581,-14.06905 28.91361,-46.10913 36.72976,-71.90241 l 14.07516,-46.89684 3.12951,29.70744 c 1.56324,15.63228 5.46825,28.91362 8.59471,28.91362 3.90807,0 14.06905,-21.10359 23.44843,-46.89686 19.54035,-52.36816 32.04313,-65.6617 32.04313,-33.61552 0,46.89684 13.29049,46.89684 34.39407,0 20.32198,-46.11523 35.95123,-57.82724 35.95123,-26.56267 0,9.37936 3.90806,22.6607 7.81613,28.91362 6.253,9.37938 14.0721,4.68969 42.2102,-27.35649 l 35.1726,-39.08071 0.7786,25.79937 c 0,30.48295 7.0346,31.25845 31.2646,5.4652 21.8852,-23.44844 39.0807,-25.01167 39.0807,-3.90808 0,17.97712 9.3764,19.53423 32.0432,5.4652 13.2874,-7.03454 17.9893,-7.02232 20.3341,0.79382 2.3449,4.68968 12.4936,9.37326 22.6546,9.37326 35.9544,0 139.9121,25.00555 186.8089,44.54591 109.42607,46.11524 218.85207,137.57632 285.28917,239.18619 l 92.2367,157.19302 c 20.5675,33.88144 93.9476,134.44208 118.7686,192.7931 A 720.00932,720.00932 0 0 0 1440.02,720.01077 l -0.063,-10.13655 A 720.00932,720.00932 0 0 0 712.41643,0.04019381 Z"
     id="path871"
     inkscape:connector-curvature="0" />
  <g
     id="layer101"
     style="fill:#262d3a;stroke:none"
     transform="translate(-471.65647,178.29825)" />
  <g
     id="layer106"
     style="fill:#dedede;stroke:none"
     transform="translate(-400.49431,56.898571)"
     inkscape:export-xdpi="491.51999"
     inkscape:export-ydpi="491.51999">
    <g
       id="g1829"
       style="fill:#fffff1;fill-opacity:1"
       transform="translate(54.658301,-36.438867)" />
  </g>
  <path
     style="opacity:1;fill:#fffff1;fill-opacity:1;stroke:#a07cbc;stroke-width:0;stroke-linecap:round;stroke-linejoin:round;stroke-miterlimit:4;stroke-dasharray:none;stroke-dashoffset:0;stroke-opacity:1;paint-order:stroke markers fill"
     id="path863"
     sodipodi:type="arc"
     sodipodi:cx="-610.47003"
     sodipodi:cy="446.01001"
     sodipodi:rx="173.51697"
     sodipodi:ry="146.25"
     sodipodi:start="0"
     sodipodi:end="0.0078123381"
     sodipodi:open="true"
     d="m -436.95306,446.01001 a 173.51697,146.25 0 0 1 -0.005,1.14254" />
  <path
     id="path44"
     d="m 3160.1808,829.89997 c 125.1,0 306.1,-25.8 306.1,-174.59997 a 140,140 0 0 0 -3.1,-34.2 l -74.5,-323.6 c -17.2,-71.2 -32.3,-103.5 -157.3,-166 -97,-49.6 -308.3,-131.5 -370.8,-131.5 -58.2,0 -75.1,75 -144.5,75 -66.8,0 -116.4,-56 -178.9,-56 -60,0 -99.1,40.9 -129.3,125 0,0 -84.1,237.2 -94.9,271.6 a 64.300001,64.300001 0 0 0 -2.2,19.4 c 0,92.2 363,394.49997 849.4,394.49997 M 3485.4808,715.7 c 17.3,81.89997 17.3,90.49997 17.3,101.29997 0,140 -157.4,217.70003 -364.3,217.70003 -467.6,0.3 -877.2,-273.7 -877.2,-454.8 a 184.5,184.5 0 0 1 15.1,-73.3 c -168.2,8.4 -385.9,38.4 -385.9,230.6 0,314.8 745.9,702.8 1336.5,702.8 452.8,0 567,-204.8 567,-366.5 0,-127.20003 -110,-271.60003 -308.3,-357.8"
     class="cls-1"
     inkscape:connector-curvature="0"
     style="fill:#ffffff;stroke-width:10" />
</svg>
